Fifteen years ago, a group of men's lives were forever changed by a strange occurrence. Now, the same group of men will spend a night together ... in terror.
 
http://img412.imageshack.us/img412/6671/6ozuzgm.png 
http://img687.imageshack.us/img687/2044/dbqkeykf.png 
http://img94.imageshack.us/img94/6113/kqqgcisr.png 
http://img13.imageshack.us/img13/4111/wsc0zncj.png 
http://img820.imageshack.us/img820/9497/3ektehwo.png
 
http://www.imdb.com/title/tt0457275/

 encoded by bigperm  
http://img441.imageshack.us/img441/5863/547pdk.gif

Misty Rosas..................Foki Scout
Paul McCarthy-Boyington......Cody
Brad WIlliam Henke...........Duke
Michael C.Williams...........Otis
Adam Kaufman.................Wyatt
Catherine Mangan.............Hope
James Gammon.................Sheriif Henderson
Joe Unger....................Mr. Towne
John WIlliam Wright..........Monger Warrior
Shea Elmore..................Monger Warrior
Klaus Heesch.................Monger Warrior
Matt McCann..................Monger Warrior
Phil Stevenson...............Monger Warrior
Eduardo Sanchez..............Monger Warrior

Format : MPEG-4
Format profile : Base Media / Version 2
Codec ID : mp42
File size : 473 MiB
Duration : 1h 27mn
Overall bit rate : 751 Kbps

Video:

ID : 1
Format : AVC
Format/Info : Advanced Video Codec
Format profile : Main@L3.0
Format settings, CABAC : Yes
Format settings, ReFrames : 2 frames
Codec ID : avc1
Codec ID/Info : Advanced Video Coding
Duration : 1h 27mn
Bit rate mode : Variable
Bit rate : 587 Kbps
Width : 720 pixels
Height : 462 pixels
Display aspect ratio : 16:9
Frame rate mode : Variable
Frame rate : 23.976 fps
Minimum frame rate : 11.989 fps
Maximum frame rate : 29.970 fps
Resolution : 8 bits
Colorimetry : 4:2:0
Scan type : Progressive
Bits/(Pixel*Frame) : 0.074
Stream size : 369 MiB (78%)
Writing library : x264 core 79

Audio:

ID : 2
Format : AAC
Format/Info : Advanced Audio Codec
Format version : Version 4
Format profile : LC
Format settings, SBR : No
Codec ID : 40
Duration : 1h 27mn
Bit rate mode : Variable
Bit rate : 159 Kbps
Maximum bit rate : 238 Kbps
Channel(s) : 2 channels
Channel positions : Front: L R
Sampling rate : 48.0 KHz
Stream size : 100 MiB (21%)
Language : English